<?xml version="1.0" encoding="utf-8"?>
<!-- Generator: Adobe Illustrator 16.0.0, SVG Export Plug-In . SVG Version: 6.00 Build 0)  -->
<!DOCTYPE svg PUBLIC "-//W3C//DTD SVG 1.1//EN" "http://www.w3.org/Graphics/SVG/1.1/DTD/svg11.dtd">
<svg version="1.1" id="Layer_1" xmlns="http://www.w3.org/2000/svg" xmlns:xlink="http://www.w3.org/1999/xlink" x="0px" y="0px"
	 width="1280px" height="800px" viewBox="0 0 1280 800" enable-background="new 0 0 1280 800" xml:space="preserve">
<g>
	<path fill-rule="evenodd" clip-rule="evenodd" d="M639.58,479.75c-5.781,5.071-10.618,9.696-15.841,13.835
		c-51.123,40.523-116.669,15.886-128.479-48.235c-11.037-59.926,32.008-130.504,90.484-147.227
		c36.579-10.461,68.854-5.424,87.376,33.705c0.221,0.465,1.089,0.623,2.372,1.305c3.354-9.732,6.667-19.338,10.034-29.109
		c12.753,0,25.134,0,39.024,0c-4.108,13.188-7.925,25.79-11.958,38.322c-10.68,33.196-21.457,66.363-32.199,99.539
		c-0.413,1.278-0.965,2.52-1.28,3.82c-2.469,10.135-6.102,20.659,2.885,29.373c9.579,9.289,22.102,9.938,32.934,4.986
		c11.906-5.439,24.202-12.595,32.855-22.147c45.041-49.725,43.983-123.528-1.253-173.302c-69.237-76.178-187.443-79.5-261.444-7.806
		c-36.506,35.368-59.07,76.946-60.76,128.521c-2.183,66.678,28.954,114.445,85.491,146.469
		c44.861,25.411,93.37,26.95,142.813,17.355c14.138-2.745,28.137-6.229,43.256-9.61c4.301,10.063,8.588,20.089,13.823,32.331
		c-18.4,4.708-35.919,10.184-53.832,13.591c-57.681,10.972-113.929,7.212-166.449-21.248
		c-54.726-29.655-93.222-72.846-103.122-136.132c-9.582-61.256,6.62-117.022,44.308-165.591
		c56.769-73.158,133.239-104.026,223.84-90.591c75.937,11.261,133.9,52.088,159.884,127.559
		c26.559,77.131-15.565,150.155-64.824,180.714c-23.198,14.391-48.696,18.763-75.539,13.636
		C655.452,510.273,643.902,498.869,639.58,479.75z M535.079,421.541c2.146,10.416,2.817,21.419,6.699,31.143
		c14.572,36.509,57.115,40.869,83.853,8.707c22.397-26.945,30.689-59.31,32.713-93.39c1.233-20.779-10.398-36.209-30.558-41.902
		c-22.666-6.399-41.809,1.225-57.602,17.472C549.265,365.094,537.688,390.942,535.079,421.541z"/>
</g>
</svg>